<?xml version="1.0" standalone="no"?>
<!DOCTYPE svg PUBLIC "-//W3C//DTD SVG 20010904//EN"
 "http://www.w3.org/TR/2001/REC-SVG-20010904/DTD/svg10.dtd">
<svg version="1.0" xmlns="http://www.w3.org/2000/svg"
 width="256.000000pt" height="256.000000pt" viewBox="0 0 256.000000 256.000000"
 preserveAspectRatio="xMidYMid meet">

<g transform="translate(0.000000,256.000000) scale(0.100000,-0.100000)"
fill="#000000" stroke="none">
<path d="M1264 986 c-8 -22 3 -49 19 -43 6 2 12 14 12 27 0 27 -22 39 -31 16z"/>
<path d="M1694 980 c-42 -16 -64 -58 -64 -121 0 -50 4 -63 28 -91 31 -34 78
-42 106 -18 18 14 19 20 7 39 -8 12 -12 12 -25 2 -36 -30 -86 14 -86 75 0 30
45 78 65 70 8 -3 22 -9 30 -12 10 -4 15 0 15 10 0 9 0 19 1 24 1 13 -56 30
-77 22z"/>
<path d="M2097 984 c-3 -3 -3 -13 0 -21 3 -8 0 -26 -8 -39 -10 -20 -10 -29 -1
-44 7 -11 12 -37 12 -58 0 -47 23 -82 56 -82 31 0 33 31 2 45 -18 8 -24 20
-26 53 -3 39 -1 42 22 42 19 0 26 5 26 20 0 15 -7 20 -25 20 -22 0 -25 4 -25
35 0 32 -15 46 -33 29z"/>
<path d="M457 962 c-23 -25 -22 -85 1 -105 10 -10 30 -17 44 -17 28 0 53 -23
44 -39 -4 -5 -27 -13 -51 -17 -35 -5 -45 -10 -45 -25 0 -16 8 -19 48 -19 57 0
82 20 82 66 0 46 -25 74 -66 74 -22 0 -37 6 -41 16 -9 23 10 36 56 37 35 2 41
5 41 25 0 20 -5 22 -48 22 -35 0 -54 -5 -65 -18z"/>
<path d="M614 895 c-22 -34 -15 -122 12 -142 28 -20 71 -16 88 9 23 33 21 113
-4 138 -29 29 -76 26 -96 -5z m75 -29 c17 -20 10 -67 -11 -79 -23 -15 -48 8
-48 42 0 45 35 66 59 37z"/>
<path d="M740 914 c0 -3 12 -44 26 -90 33 -110 53 -114 77 -16 9 37 19 77 23
90 5 18 2 22 -14 22 -17 0 -22 -8 -28 -45 -10 -73 -23 -69 -39 13 -5 23 -12
32 -26 32 -10 0 -19 -3 -19 -6z"/>
<path d="M896 898 c-49 -70 16 -195 80 -153 26 17 28 23 15 44 -8 12 -12 13
-25 1 -29 -23 -27 -5 4 44 35 55 36 62 11 76 -32 17 -69 12 -85 -12z m54 -23
c0 -4 -8 -20 -17 -38 -13 -24 -18 -28 -21 -15 -4 20 14 58 28 58 6 0 10 -2 10
-5z"/>
<path d="M1020 831 c0 -84 1 -91 20 -91 18 0 20 7 20 65 0 61 2 65 25 71 16 4
25 13 25 25 0 20 -25 25 -50 9 -9 -5 -19 -5 -27 2 -10 8 -13 -8 -13 -81z"/>
<path d="M1146 901 c-23 -25 -30 -89 -14 -121 26 -49 88 -57 105 -14 8 22 -15
43 -27 24 -5 -8 -12 -11 -17 -7 -4 4 -1 18 7 30 42 68 45 74 31 91 -18 22 -64
20 -85 -3z m44 -31 c0 -5 -5 -20 -11 -34 -12 -26 -32 -27 -24 -1 3 8 7 22 10
30 5 16 25 21 25 5z"/>
<path d="M1266 911 c-3 -4 -3 -45 1 -90 4 -58 10 -81 19 -81 11 0 14 21 14 90
0 72 -3 90 -14 90 -8 0 -17 -4 -20 -9z"/>
<path d="M1341 894 c-45 -57 -13 -154 51 -154 26 0 29 -2 18 -15 -7 -8 -19
-15 -26 -15 -8 0 -14 -9 -14 -20 0 -22 20 -26 50 -10 27 14 40 64 40 153 0 65
-3 78 -15 74 -8 -4 -17 -2 -20 3 -13 20 -63 10 -84 -16z m67 -26 c16 -16 15
-63 -2 -77 -33 -27 -69 26 -46 68 12 24 30 27 48 9z"/>
<path d="M1501 913 c-21 -4 -23 -9 -17 -41 3 -21 6 -58 6 -84 0 -36 4 -48 15
-48 12 0 15 13 15 58 0 62 14 89 37 71 8 -7 13 -34 13 -70 0 -52 2 -59 20 -59
17 0 20 7 20 53 0 68 -26 122 -60 123 -14 1 -36 0 -49 -3z"/>
<path d="M1806 898 c-18 -26 -21 -100 -5 -129 16 -31 50 -40 78 -21 18 10 26
12 29 4 2 -7 8 -12 12 -12 5 0 7 26 5 58 -2 31 -4 73 -4 92 -1 28 -4 32 -12
20 -8 -11 -12 -12 -16 -2 -8 21 -70 15 -87 -10z m74 -39 c15 -26 9 -59 -12
-72 -23 -15 -48 8 -48 42 0 48 40 68 60 30z"/>
<path d="M1966 904 c-38 -38 -5 -104 52 -104 13 0 20 -4 17 -10 -3 -5 -24 -10
-46 -10 -32 0 -39 -3 -39 -20 0 -17 7 -20 44 -20 50 0 76 19 76 55 0 32 -25
55 -62 55 -43 0 -30 24 15 28 29 3 37 7 37 23 0 16 -7 19 -39 19 -23 0 -46 -7
-55 -16z"/>
</g>
</svg>
